<svg width="812" height="3115" viewBox="0 0 812 3115" fill="none" xmlns="http://www.w3.org/2000/svg">
<path d="M238.255 156.837L228.611 145.348L228.611 145.348L238.255 156.837ZM791.058 154.963L776.491 158.543L776.491 158.543L791.058 154.963ZM780.751 445.418L765.876 443.485L780.751 445.418ZM716.101 809.893L730.847 812.641L716.101 809.893ZM619.595 1403.92L634.477 1405.8L619.595 1403.92ZM583.991 2089.77L569.001 2090.33L583.991 2089.77ZM615.847 2599.48L630.773 2597.99L615.847 2599.48ZM631 2852.5H616V2853.1L616.047 2853.69L631 2852.5ZM632.393 3110.61C638.251 3116.46 647.749 3116.46 653.607 3110.61L749.066 3015.15C754.924 3009.29 754.924 2999.79 749.066 2993.93C743.208 2988.08 733.711 2988.08 727.853 2993.93L643 3078.79L558.147 2993.93C552.289 2988.08 542.792 2988.08 536.934 2993.93C531.076 2999.79 531.076 3009.29 536.934 3015.15L632.393 3110.61ZM30.2598 670.287C30.2598 479.975 98.2235 293.968 247.899 168.325L228.611 145.348C70.7646 277.85 0.259766 473.085 0.259766 670.287H30.2598ZM247.899 168.325C306.637 119.019 426.626 55.4932 538.964 36.0839C595.068 26.3903 647.498 28.0152 689.049 46.1956C729.751 64.0049 761.712 98.4143 776.491 158.543L805.624 151.382C788.798 82.9276 751.008 40.5597 701.074 18.7113C651.989 -2.76603 592.898 -3.67922 533.856 6.52185C415.901 26.9018 291.094 92.8967 228.611 145.348L247.899 168.325ZM776.491 158.543C779.706 171.624 781.32 192.532 781.559 218.4C781.795 243.939 780.693 273.202 778.918 302.397C775.367 360.79 769.167 418.175 765.876 443.485L795.626 447.352C798.996 421.43 805.267 363.359 808.863 304.218C810.661 274.645 811.802 244.622 811.558 218.123C811.316 191.954 809.727 168.073 805.624 151.382L776.491 158.543ZM765.876 443.485C753.645 537.561 718.776 713.664 701.355 807.146L730.847 812.641C748.098 720.074 783.253 542.516 795.626 447.352L765.876 443.485ZM701.355 807.146C664.59 1004.43 629.855 1202.5 604.713 1402.05L634.477 1405.8C659.507 1207.15 694.111 1009.78 730.847 812.641L701.355 807.146ZM604.713 1402.05C576.2 1628.34 560.534 1861.71 569.001 2090.33L598.981 2089.22C590.589 1862.65 606.106 1630.97 634.477 1405.8L604.713 1402.05ZM569.001 2090.33C575.296 2260.28 584.029 2431.35 600.921 2600.96L630.773 2597.99C613.972 2429.29 605.267 2258.94 598.981 2089.22L569.001 2090.33ZM600.921 2600.96C607.141 2663.42 616 2787.24 616 2852.5H646C646 2785.76 637.028 2660.79 630.773 2597.99L600.921 2600.96ZM616.047 2853.69C628.063 3004.39 628 2947.22 628 3100H658C658 2945.78 657.937 3001.61 645.953 2851.31L616.047 2853.69Z" fill="white"/>
</svg>
