<svg width="371" height="3107" viewBox="0 0 371 3107" fill="none" xmlns="http://www.w3.org/2000/svg">
<path d="M221.459 773.874L236.425 772.877L221.459 773.874ZM112.347 1859.29L123.772 1869.01L112.347 1859.29ZM43.1351 1746.1L38.6181 1731.8L38.6181 1731.8L43.1351 1746.1ZM221.459 1928.09L235.662 1923.27L221.459 1928.09ZM239.372 2326.67L254.326 2327.85L239.372 2326.67ZM237.744 2893.4L222.994 2896.13L237.744 2893.4ZM249.122 3101.87C254.98 3107.73 264.478 3107.73 270.336 3101.87L365.795 3006.41C371.653 3000.55 371.653 2991.06 365.795 2985.2C359.937 2979.34 350.44 2979.34 344.582 2985.2L259.729 3070.05L174.876 2985.2C169.018 2979.34 159.521 2979.34 153.663 2985.2C147.805 2991.06 147.805 3000.55 153.663 3006.41L249.122 3101.87ZM167.764 0.184329C137.901 128.597 143.72 260.41 158.779 390.651C173.97 522.037 198.134 649.501 206.492 774.872L236.425 772.877C228.035 647.021 203.382 515.218 188.581 387.205C173.647 258.046 168.299 130.327 196.984 6.97973L167.764 0.184329ZM206.492 774.872C222.612 1016.68 229.206 1268.84 199.246 1508.51L229.014 1512.24C259.331 1269.7 252.586 1015.29 236.425 772.877L206.492 774.872ZM199.246 1508.51C192.477 1562.67 185.72 1627.06 171.464 1688.99C157.18 1751.04 135.77 1808.61 100.923 1849.57L123.772 1869.01C163.27 1822.58 186.035 1759.42 200.699 1695.72C215.391 1631.9 222.353 1565.53 229.014 1512.24L199.246 1508.51ZM100.923 1849.57C96.2242 1855.09 91.8353 1857.38 88.1372 1858.22C84.3523 1859.08 79.9262 1858.72 74.7722 1856.65C64.015 1852.34 52.1607 1841.33 43.0822 1826.52C34.0364 1811.76 29.2868 1795.71 30.0872 1783.27C30.4752 1777.23 32.1187 1772.55 34.6547 1769.05C37.1093 1765.66 41.0396 1762.5 47.6521 1760.41L38.6181 1731.8C26.5301 1735.62 16.9814 1742.32 10.3674 1751.44C3.83479 1760.45 0.820037 1770.91 0.149067 1781.34C-1.1684 1801.83 6.3613 1824.01 17.5029 1842.19C28.6117 1860.32 44.853 1876.98 63.6104 1884.5C73.2137 1888.35 83.8997 1889.94 94.7705 1887.48C105.728 1884.99 115.539 1878.68 123.772 1869.01L100.923 1849.57ZM47.6521 1760.41C61.4282 1756.06 76.4977 1759.07 93.1509 1769.35C109.925 1779.71 126.792 1796.6 142.555 1816.79C174.089 1857.17 198.546 1907.27 207.255 1932.92L235.662 1923.27C225.909 1894.55 199.876 1841.45 166.2 1798.32C149.358 1776.75 129.939 1756.81 108.911 1743.83C87.7625 1730.77 63.5135 1723.94 38.6181 1731.8L47.6521 1760.41ZM207.255 1932.92C249.685 2057.85 234.958 2191.99 224.419 2325.49L254.326 2327.85C264.692 2196.55 280.512 2055.33 235.662 1923.27L207.255 1932.92ZM224.419 2325.49C209.946 2508.82 188.716 2710.62 222.994 2896.13L252.494 2890.67C219.104 2709.97 239.721 2512.85 254.326 2327.85L224.419 2325.49ZM222.994 2896.13C234.613 2959.01 244.729 3028.39 244.729 3091.27H274.729C274.729 3025.6 264.206 2954.05 252.494 2890.67L222.994 2896.13Z" fill="white"/>
</svg>
