<svg width="840" height="3297" viewBox="0 0 840 3297" fill="none" xmlns="http://www.w3.org/2000/svg">
<path d="M648.084 86.099L639.65 98.5038L639.65 98.5038L648.084 86.099ZM183.14 193.582L197.75 196.979L183.14 193.582ZM222.224 963.874L237.191 962.876L222.224 963.874ZM113.113 2049.29L124.538 2059.01L113.113 2049.29ZM43.9007 1936.1L39.3838 1921.8L39.3838 1921.8L43.9007 1936.1ZM222.224 2118.09L236.427 2113.27L222.224 2118.09ZM240.138 2516.67L255.091 2517.85L240.138 2516.67ZM238.509 3083.4L223.759 3086.13L238.509 3083.4ZM249.888 3291.87C255.746 3297.73 265.243 3297.73 271.101 3291.87L366.561 3196.41C372.418 3190.55 372.418 3181.06 366.561 3175.2C360.703 3169.34 351.205 3169.34 345.347 3175.2L260.495 3260.05L175.642 3175.2C169.784 3169.34 160.286 3169.34 154.429 3175.2C148.571 3181.06 148.571 3190.55 154.429 3196.41L249.888 3291.87ZM839.779 562.443C839.779 487.969 832.949 392.755 806.931 302.94C780.946 213.241 735.326 127.272 656.517 73.6942L639.65 98.5038C710.421 146.616 753.148 225.097 778.116 311.287C803.05 397.361 809.779 489.473 809.779 562.443H839.779ZM656.517 73.6942C578.266 20.496 471.32 -9.43956 376.37 3.00649C328.698 9.25531 283.541 26.2708 246.743 56.9695C209.827 87.7669 182.138 131.666 168.53 190.184L197.75 196.979C210.007 144.271 234.472 106.275 265.961 80.0058C297.568 53.6375 337.068 38.4147 380.269 32.752C467.063 21.3751 566.722 48.9239 639.65 98.5038L656.517 73.6942ZM168.53 190.184C138.666 318.596 144.486 450.41 159.545 580.65C174.736 712.037 198.899 839.5 207.257 964.872L237.191 962.876C228.801 837.02 204.147 705.217 189.346 577.205C174.412 448.046 169.064 320.327 197.75 196.979L168.53 190.184ZM207.257 964.872C223.378 1206.68 229.972 1458.83 200.012 1698.51L229.78 1702.24C260.097 1459.7 253.352 1205.29 237.191 962.876L207.257 964.872ZM200.012 1698.51C193.242 1752.67 186.485 1817.06 172.229 1878.99C157.946 1941.04 136.535 1998.61 101.688 2039.57L124.538 2059.01C164.035 2012.58 186.801 1949.42 201.465 1885.72C216.156 1821.9 223.119 1755.53 229.78 1702.24L200.012 1698.51ZM101.688 2039.57C96.9899 2045.09 92.6009 2047.38 88.9028 2048.22C85.1179 2049.08 80.6918 2048.72 75.5378 2046.65C64.7806 2042.34 52.9264 2031.33 43.8478 2016.52C34.802 2001.76 30.0525 1985.71 30.8529 1973.27C31.2408 1967.23 32.8843 1962.55 35.4203 1959.05C37.8749 1955.66 41.8052 1952.5 48.4177 1950.41L39.3838 1921.8C27.2957 1925.62 17.747 1932.32 11.133 1941.44C4.60042 1950.45 1.58566 1960.91 0.914692 1971.34C-0.402773 1991.83 7.12693 2014.01 18.2685 2032.19C29.3773 2050.32 45.6186 2066.98 64.376 2074.5C73.9793 2078.35 84.6653 2079.94 95.5361 2077.48C106.494 2074.99 116.304 2068.68 124.538 2059.01L101.688 2039.57ZM48.4177 1950.41C62.1939 1946.06 77.2634 1949.07 93.9165 1959.35C110.691 1969.71 127.557 1986.6 143.32 2006.79C174.855 2047.17 199.312 2097.27 208.021 2122.92L236.427 2113.27C226.675 2084.55 200.642 2031.45 166.966 1988.32C150.123 1966.75 130.704 1946.81 109.677 1933.83C88.5281 1920.77 64.2791 1913.94 39.3838 1921.8L48.4177 1950.41ZM208.021 2122.92C250.451 2247.85 235.724 2381.99 225.185 2515.49L255.091 2517.85C265.458 2386.55 281.278 2245.33 236.427 2113.27L208.021 2122.92ZM225.185 2515.49C210.712 2698.82 189.481 2900.62 223.759 3086.13L253.26 3080.67C219.869 2899.97 240.486 2702.85 255.091 2517.85L225.185 2515.49ZM223.759 3086.13C235.378 3149 245.495 3218.39 245.495 3281.27H275.495C275.495 3215.6 264.971 3144.05 253.26 3080.67L223.759 3086.13Z" fill="white"/>
</svg>
