<svg width="3162" height="747" viewBox="0 0 3162 747" fill="none" xmlns="http://www.w3.org/2000/svg">
<path d="M3160 15C2650.45 72.3396 2341.55 230.297 1837.51 303.939C1689.27 325.598 1529.95 327.764 1381.07 311.048C1303.14 302.3 1274.62 203.153 1330.44 133.321C1347.95 111.422 1409.14 81.7897 1425.88 122.149C1465.82 218.421 1317.04 324.227 1269.03 356.75C1122.76 455.843 958.108 431.013 609.746 442.562C444.761 431.935 279.283 435.353 114.301 426.312C58.1462 423.235 153.205 321.831 164.095 308.504C197.087 268.129 312.761 170.75 273.64 201.868C195.1 264.342 109.128 318.92 35.4616 389.751C6.97792 417.139 11.3288 437.397 29.6524 473.029C78.81 568.621 143.698 639.747 221.357 699.505C237.129 711.641 257.272 722.129 269.491 737.082" stroke="white" stroke-width="30"/>
</svg>
