<svg width="3554" height="486" viewBox="0 0 3554 486" fill="none" xmlns="http://www.w3.org/2000/svg">
<path d="M2.61697 365.797C313.014 408.469 629.995 472.193 944.042 470.387C1171.7 469.077 1401.87 432.977 1627.34 405.586C1714.58 394.989 1824.56 381.143 1912.65 365.035C1968.04 354.906 2053.31 345.038 2102.38 310.504C2177.13 257.894 1990.35 135.71 1927.62 168.624C1863.33 202.357 1968.58 285.182 1991.89 302.236C2106.81 386.305 2249.08 436.291 2390.97 443.101C2656.12 455.826 2882.75 310.866 3119.74 214.423C3240.33 165.35 3361.72 118.672 3481.6 67.9757C3493.02 63.1486 3443.32 178.922 3442.6 180.703C3424.52 225.638 3397.56 292.895 3380.54 337.85C3373.09 357.523 3365.66 377.212 3359 397.168C3344.55 440.527 3358.97 410.677 3369.02 389.048C3422.96 272.945 3464.57 150.843 3523.54 37.0934C3527.4 29.6309 3544.63 13.3233 3536.51 15.4693C3495.39 26.3275 3460.07 53.7267 3416.2 64.5517C3285.23 96.8639 3163.46 91.4559 3034.57 68.1325" stroke="white" stroke-width="30"/>
</svg>
